<?xml version="1.0" ?>
<!DOCTYPE svg  PUBLIC '-//W3C//DTD SVG 1.1//EN'  'http://www.w3.org/Graphics/SVG/1.1/DTD/svg11.dtd'>
<svg enable-background="new 0 0 512 512" id="Layer_1" version="1.1" viewBox="0 0 512 512" xml:space="preserve" xmlns="http://www.w3.org/2000/svg" xmlns:xlink="http://www.w3.org/1999/xlink">
	<g>
		<path d="M490.51,294.933v-78.613l-57.766-11.093c-3.883-13.594-9.354-26.549-16.092-38.657l32.701-48.337    l-55.602-55.587l-48.244,32.663c-12.309-6.885-25.492-12.177-39.338-16.109l-11.043-57.14h-78.614l-11.049,57.194    C191.568,83.21,178.34,88.654,166,95.592l-48.069-32.61l-55.589,55.562l32.726,48.312c-6.765,12.204-12.277,25.253-16.142,38.959    L21.49,216.841v78.613l57.659,11.078c3.917,13.661,9.426,26.676,16.228,38.834l-32.932,48.67l55.601,55.59l48.83-33.061    c12.103,6.719,25.048,11.981,38.629,15.852l11.099,57.524h78.614l11.096-57.531c13.684-3.894,26.717-9.275,38.896-16.063    l48.832,33.101l55.588-55.574l-33.072-48.836c6.805-12.221,12.383-25.298,16.279-39.032L490.51,294.933 M255.975,378.017    c-67.441,0-122.115-54.673-122.115-122.114s54.674-122.115,122.115-122.115c67.441,0,122.115,54.673,122.115,122.115    S323.416,378.017,255.975,378.017" fill="#F56F6C"/>
		<path d="M254.297,378v0.006c0.439,0.006,0.877,0.01,1.316,0.01C255.322,378.014,255.289,378.005,254.297,378     M255.676,133.789c-0.461,0-0.92,0.004-1.379,0.011v0.005C255.313,133.801,255.359,133.791,255.676,133.789 M255.975,133.788    l-0.086,0.001c67.402,0.047,122.113,54.702,122.113,122.114c0,67.405-54.744,122.055-122.135,122.114h0.107    c67.441,0,122.115-54.673,122.115-122.114S323.416,133.788,255.975,133.788 M393.775,62.645l-0.014,0.009l55.592,55.579    l-32.701,48.337c6.738,12.108,12.209,25.063,16.092,38.657l57.766,11.093v78.613v-78.613l-57.766-11.093    c-3.883-13.594-9.268-26.549-16.006-38.657l32.66-48.337L393.775,62.645 M295.127,22.058h-40.83H295.127l11.043,57.14    c13.846,3.933,27.029,9.225,39.338,16.109l0.006-0.003c-12.307-6.884-25.494-12.174-39.338-16.106L295.127,22.058" fill="#F2F2F2"/>
		<path d="M295.127,22.058h-40.83V133.8c0.459-0.007,0.918-0.011,1.379-0.011l0.125-0.001l0.088,0.001l0.086-0.001    c67.441,0,122.115,54.673,122.115,122.115s-54.674,122.114-122.115,122.114h-0.107h-0.109l-0.145-0.001    c-0.439,0-0.877-0.004-1.316-0.01v111.936h40.92l11.096-57.531c13.684-3.894,26.717-9.275,38.896-16.063l48.832,33.101    l55.588-55.574l-33.072-48.836c6.805-12.221,12.383-25.298,16.279-39.032l57.674-11.073v-78.613l-57.766-11.093    c-3.883-13.594-9.354-26.549-16.092-38.657l32.701-48.337l-55.592-55.579l-48.244,32.654l-0.004-0.003l-0.006,0.003    c-12.309-6.885-25.492-12.177-39.338-16.109L295.127,22.058" fill="#E96966"/>
		<path d="M256.072,111.928c-79.505,0-143.957,64.451-143.957,143.956c0,79.503,64.452,143.955,143.957,143.955    c79.504,0,143.955-64.452,143.955-143.955C400.027,176.379,335.576,111.928,256.072,111.928z M256.072,329.569    c-40.696,0-73.687-32.99-73.687-73.686c0-40.697,32.991-73.687,73.687-73.687c40.695,0,73.686,32.989,73.686,73.687    C329.758,296.579,296.768,329.569,256.072,329.569z" fill="#4A525F"/>
	</g>
</svg>